<mxfile host="app.diagrams.net" modified="2020-09-17T17:48:38.539Z" agent="5.0 (Windows NT 10.0; Win64; x64) AppleWebKit/537.36 (KHTML, like Gecko) Chrome/85.0.4183.102 Safari/537.36" etag="jOlyNPXbEJouxGbkJIcO" version="13.7.3" type="github">
  <diagram id="C5RBs43oDa-KdzZeNtuy" name="Page-1">
    <mxGraphModel dx="1038" dy="580" grid="1" gridSize="10" guides="1" tooltips="1" connect="1" arrows="1" fold="1" page="1" pageScale="1" pageWidth="827" pageHeight="1169" math="0" shadow="0">
      <root>
        <mxCell id="WIyWlLk6GJQsqaUBKTNV-0" />
        <mxCell id="WIyWlLk6GJQsqaUBKTNV-1" parent="WIyWlLk6GJQsqaUBKTNV-0" />
        <mxCell id="AzRIFwhGw3seuBZpt7Vp-23" value="" style="edgeStyle=orthogonalEdgeStyle;rounded=0;orthogonalLoop=1;jettySize=auto;html=1;" parent="WIyWlLk6GJQsqaUBKTNV-1" source="AzRIFwhGw3seuBZpt7Vp-21" target="AzRIFwhGw3seuBZpt7Vp-22" edge="1">
          <mxGeometry relative="1" as="geometry" />
        </mxCell>
        <mxCell id="AzRIFwhGw3seuBZpt7Vp-21" value="Enter starting balance in dollars.&amp;nbsp;" style="ellipse;whiteSpace=wrap;html=1;" parent="WIyWlLk6GJQsqaUBKTNV-1" vertex="1">
          <mxGeometry x="160" y="60" width="120" height="80" as="geometry" />
        </mxCell>
        <mxCell id="AzRIFwhGw3seuBZpt7Vp-26" value="" style="edgeStyle=orthogonalEdgeStyle;rounded=0;orthogonalLoop=1;jettySize=auto;html=1;" parent="WIyWlLk6GJQsqaUBKTNV-1" source="AzRIFwhGw3seuBZpt7Vp-22" target="AzRIFwhGw3seuBZpt7Vp-25" edge="1">
          <mxGeometry relative="1" as="geometry" />
        </mxCell>
        <mxCell id="AzRIFwhGw3seuBZpt7Vp-29" value="no" style="edgeStyle=orthogonalEdgeStyle;rounded=0;orthogonalLoop=1;jettySize=auto;html=1;" parent="WIyWlLk6GJQsqaUBKTNV-1" source="AzRIFwhGw3seuBZpt7Vp-22" target="AzRIFwhGw3seuBZpt7Vp-21" edge="1">
          <mxGeometry relative="1" as="geometry">
            <mxPoint x="290" y="150" as="targetPoint" />
            <Array as="points">
              <mxPoint x="300" y="200" />
              <mxPoint x="300" y="100" />
            </Array>
          </mxGeometry>
        </mxCell>
        <mxCell id="AzRIFwhGw3seuBZpt7Vp-22" value="is it 1000?" style="whiteSpace=wrap;html=1;" parent="WIyWlLk6GJQsqaUBKTNV-1" vertex="1">
          <mxGeometry x="160" y="170" width="120" height="60" as="geometry" />
        </mxCell>
        <mxCell id="AzRIFwhGw3seuBZpt7Vp-28" value="" style="edgeStyle=orthogonalEdgeStyle;rounded=0;orthogonalLoop=1;jettySize=auto;html=1;" parent="WIyWlLk6GJQsqaUBKTNV-1" source="AzRIFwhGw3seuBZpt7Vp-25" target="AzRIFwhGw3seuBZpt7Vp-27" edge="1">
          <mxGeometry relative="1" as="geometry" />
        </mxCell>
        <mxCell id="AzRIFwhGw3seuBZpt7Vp-25" value="yes" style="rhombus;whiteSpace=wrap;html=1;" parent="WIyWlLk6GJQsqaUBKTNV-1" vertex="1">
          <mxGeometry x="180" y="260" width="80" height="80" as="geometry" />
        </mxCell>
        <mxCell id="AzRIFwhGw3seuBZpt7Vp-31" value="" style="edgeStyle=orthogonalEdgeStyle;rounded=0;orthogonalLoop=1;jettySize=auto;html=1;" parent="WIyWlLk6GJQsqaUBKTNV-1" source="AzRIFwhGw3seuBZpt7Vp-27" target="AzRIFwhGw3seuBZpt7Vp-30" edge="1">
          <mxGeometry relative="1" as="geometry" />
        </mxCell>
        <mxCell id="AzRIFwhGw3seuBZpt7Vp-27" value="Enter yearly contribution in dollars" style="ellipse;whiteSpace=wrap;html=1;" parent="WIyWlLk6GJQsqaUBKTNV-1" vertex="1">
          <mxGeometry x="160" y="360" width="120" height="80" as="geometry" />
        </mxCell>
        <mxCell id="AzRIFwhGw3seuBZpt7Vp-35" value="" style="edgeStyle=orthogonalEdgeStyle;rounded=0;orthogonalLoop=1;jettySize=auto;html=1;" parent="WIyWlLk6GJQsqaUBKTNV-1" source="AzRIFwhGw3seuBZpt7Vp-30" target="AzRIFwhGw3seuBZpt7Vp-34" edge="1">
          <mxGeometry relative="1" as="geometry" />
        </mxCell>
        <mxCell id="AzRIFwhGw3seuBZpt7Vp-37" value="no" style="edgeStyle=orthogonalEdgeStyle;rounded=0;orthogonalLoop=1;jettySize=auto;html=1;entryX=1;entryY=0.5;entryDx=0;entryDy=0;" parent="WIyWlLk6GJQsqaUBKTNV-1" source="AzRIFwhGw3seuBZpt7Vp-30" target="AzRIFwhGw3seuBZpt7Vp-27" edge="1">
          <mxGeometry relative="1" as="geometry">
            <mxPoint x="370" y="485" as="targetPoint" />
            <Array as="points">
              <mxPoint x="300" y="470" />
              <mxPoint x="300" y="400" />
            </Array>
          </mxGeometry>
        </mxCell>
        <mxCell id="AzRIFwhGw3seuBZpt7Vp-30" value="is it 100?" style="whiteSpace=wrap;html=1;" parent="WIyWlLk6GJQsqaUBKTNV-1" vertex="1">
          <mxGeometry x="160" y="460" width="120" height="50" as="geometry" />
        </mxCell>
        <mxCell id="AzRIFwhGw3seuBZpt7Vp-39" value="" style="edgeStyle=orthogonalEdgeStyle;rounded=0;orthogonalLoop=1;jettySize=auto;html=1;" parent="WIyWlLk6GJQsqaUBKTNV-1" source="AzRIFwhGw3seuBZpt7Vp-34" target="AzRIFwhGw3seuBZpt7Vp-38" edge="1">
          <mxGeometry relative="1" as="geometry" />
        </mxCell>
        <mxCell id="AzRIFwhGw3seuBZpt7Vp-34" value="yes" style="rhombus;whiteSpace=wrap;html=1;" parent="WIyWlLk6GJQsqaUBKTNV-1" vertex="1">
          <mxGeometry x="180" y="530" width="80" height="80" as="geometry" />
        </mxCell>
        <mxCell id="AzRIFwhGw3seuBZpt7Vp-41" value="" style="edgeStyle=orthogonalEdgeStyle;rounded=0;orthogonalLoop=1;jettySize=auto;html=1;" parent="WIyWlLk6GJQsqaUBKTNV-1" source="AzRIFwhGw3seuBZpt7Vp-38" target="AzRIFwhGw3seuBZpt7Vp-40" edge="1">
          <mxGeometry relative="1" as="geometry" />
        </mxCell>
        <mxCell id="AzRIFwhGw3seuBZpt7Vp-38" value="Enter average investment on return as %" style="ellipse;whiteSpace=wrap;html=1;" parent="WIyWlLk6GJQsqaUBKTNV-1" vertex="1">
          <mxGeometry x="160" y="630" width="120" height="80" as="geometry" />
        </mxCell>
        <mxCell id="AzRIFwhGw3seuBZpt7Vp-42" value="no" style="edgeStyle=orthogonalEdgeStyle;rounded=0;orthogonalLoop=1;jettySize=auto;html=1;" parent="WIyWlLk6GJQsqaUBKTNV-1" source="AzRIFwhGw3seuBZpt7Vp-40" target="AzRIFwhGw3seuBZpt7Vp-38" edge="1">
          <mxGeometry relative="1" as="geometry">
            <mxPoint x="310" y="710" as="targetPoint" />
            <Array as="points">
              <mxPoint x="340" y="760" />
              <mxPoint x="340" y="670" />
            </Array>
          </mxGeometry>
        </mxCell>
        <mxCell id="AzRIFwhGw3seuBZpt7Vp-44" value="" style="edgeStyle=orthogonalEdgeStyle;rounded=0;orthogonalLoop=1;jettySize=auto;html=1;" parent="WIyWlLk6GJQsqaUBKTNV-1" source="AzRIFwhGw3seuBZpt7Vp-40" target="AzRIFwhGw3seuBZpt7Vp-43" edge="1">
          <mxGeometry relative="1" as="geometry" />
        </mxCell>
        <mxCell id="AzRIFwhGw3seuBZpt7Vp-40" value="is it 5%" style="whiteSpace=wrap;html=1;" parent="WIyWlLk6GJQsqaUBKTNV-1" vertex="1">
          <mxGeometry x="160" y="730" width="120" height="60" as="geometry" />
        </mxCell>
        <mxCell id="AzRIFwhGw3seuBZpt7Vp-46" value="" style="edgeStyle=orthogonalEdgeStyle;rounded=0;orthogonalLoop=1;jettySize=auto;html=1;" parent="WIyWlLk6GJQsqaUBKTNV-1" source="AzRIFwhGw3seuBZpt7Vp-43" target="AzRIFwhGw3seuBZpt7Vp-45" edge="1">
          <mxGeometry relative="1" as="geometry" />
        </mxCell>
        <mxCell id="AzRIFwhGw3seuBZpt7Vp-43" value="yes" style="rhombus;whiteSpace=wrap;html=1;" parent="WIyWlLk6GJQsqaUBKTNV-1" vertex="1">
          <mxGeometry x="180" y="810" width="80" height="80" as="geometry" />
        </mxCell>
        <mxCell id="AzRIFwhGw3seuBZpt7Vp-48" value="" style="edgeStyle=orthogonalEdgeStyle;rounded=0;orthogonalLoop=1;jettySize=auto;html=1;" parent="WIyWlLk6GJQsqaUBKTNV-1" source="AzRIFwhGw3seuBZpt7Vp-45" target="AzRIFwhGw3seuBZpt7Vp-47" edge="1">
          <mxGeometry relative="1" as="geometry" />
        </mxCell>
        <mxCell id="AzRIFwhGw3seuBZpt7Vp-45" value="Enter number of years for the report" style="ellipse;whiteSpace=wrap;html=1;" parent="WIyWlLk6GJQsqaUBKTNV-1" vertex="1">
          <mxGeometry x="160" y="910" width="120" height="80" as="geometry" />
        </mxCell>
        <mxCell id="AzRIFwhGw3seuBZpt7Vp-50" value="" style="edgeStyle=orthogonalEdgeStyle;rounded=0;orthogonalLoop=1;jettySize=auto;html=1;" parent="WIyWlLk6GJQsqaUBKTNV-1" source="AzRIFwhGw3seuBZpt7Vp-47" target="AzRIFwhGw3seuBZpt7Vp-49" edge="1">
          <mxGeometry relative="1" as="geometry" />
        </mxCell>
        <mxCell id="AzRIFwhGw3seuBZpt7Vp-51" value="no" style="edgeStyle=orthogonalEdgeStyle;rounded=0;orthogonalLoop=1;jettySize=auto;html=1;entryX=1;entryY=0.5;entryDx=0;entryDy=0;" parent="WIyWlLk6GJQsqaUBKTNV-1" source="AzRIFwhGw3seuBZpt7Vp-47" target="AzRIFwhGw3seuBZpt7Vp-45" edge="1">
          <mxGeometry relative="1" as="geometry">
            <mxPoint x="320" y="950" as="targetPoint" />
            <Array as="points">
              <mxPoint x="300" y="1020" />
              <mxPoint x="300" y="950" />
            </Array>
          </mxGeometry>
        </mxCell>
        <mxCell id="AzRIFwhGw3seuBZpt7Vp-47" value="is it 3 years?" style="whiteSpace=wrap;html=1;" parent="WIyWlLk6GJQsqaUBKTNV-1" vertex="1">
          <mxGeometry x="160" y="1010" width="120" height="60" as="geometry" />
        </mxCell>
        <mxCell id="AzRIFwhGw3seuBZpt7Vp-49" value="yes" style="rhombus;whiteSpace=wrap;html=1;" parent="WIyWlLk6GJQsqaUBKTNV-1" vertex="1">
          <mxGeometry x="180" y="1089" width="80" height="80" as="geometry" />
        </mxCell>
        <mxCell id="M2EjxPVko-mRUe3qHApl-0" value="" style="endArrow=none;html=1;" edge="1" parent="WIyWlLk6GJQsqaUBKTNV-1">
          <mxGeometry width="50" height="50" relative="1" as="geometry">
            <mxPoint x="400" y="1160" as="sourcePoint" />
            <mxPoint x="400" y="40" as="targetPoint" />
          </mxGeometry>
        </mxCell>
        <mxCell id="M2EjxPVko-mRUe3qHApl-4" value="" style="edgeStyle=orthogonalEdgeStyle;rounded=0;orthogonalLoop=1;jettySize=auto;html=1;" edge="1" parent="WIyWlLk6GJQsqaUBKTNV-1" source="M2EjxPVko-mRUe3qHApl-1" target="M2EjxPVko-mRUe3qHApl-3">
          <mxGeometry relative="1" as="geometry" />
        </mxCell>
        <mxCell id="M2EjxPVko-mRUe3qHApl-1" value="Enter starting balance in dollars." style="ellipse;whiteSpace=wrap;html=1;" vertex="1" parent="WIyWlLk6GJQsqaUBKTNV-1">
          <mxGeometry x="590" y="60" width="120" height="80" as="geometry" />
        </mxCell>
        <mxCell id="M2EjxPVko-mRUe3qHApl-6" value="" style="edgeStyle=orthogonalEdgeStyle;rounded=0;orthogonalLoop=1;jettySize=auto;html=1;" edge="1" parent="WIyWlLk6GJQsqaUBKTNV-1" source="M2EjxPVko-mRUe3qHApl-3" target="M2EjxPVko-mRUe3qHApl-5">
          <mxGeometry relative="1" as="geometry" />
        </mxCell>
        <mxCell id="M2EjxPVko-mRUe3qHApl-3" value="is it a number?" style="whiteSpace=wrap;html=1;" vertex="1" parent="WIyWlLk6GJQsqaUBKTNV-1">
          <mxGeometry x="590" y="170" width="120" height="60" as="geometry" />
        </mxCell>
        <mxCell id="M2EjxPVko-mRUe3qHApl-8" value="" style="edgeStyle=orthogonalEdgeStyle;rounded=0;orthogonalLoop=1;jettySize=auto;html=1;" edge="1" parent="WIyWlLk6GJQsqaUBKTNV-1" source="M2EjxPVko-mRUe3qHApl-5">
          <mxGeometry relative="1" as="geometry">
            <mxPoint x="650" y="360" as="targetPoint" />
          </mxGeometry>
        </mxCell>
        <mxCell id="M2EjxPVko-mRUe3qHApl-36" value="no" style="edgeStyle=orthogonalEdgeStyle;rounded=0;orthogonalLoop=1;jettySize=auto;html=1;entryX=0;entryY=0.5;entryDx=0;entryDy=0;" edge="1" parent="WIyWlLk6GJQsqaUBKTNV-1" source="M2EjxPVko-mRUe3qHApl-5" target="M2EjxPVko-mRUe3qHApl-3">
          <mxGeometry relative="1" as="geometry">
            <Array as="points">
              <mxPoint x="650" y="250" />
              <mxPoint x="570" y="250" />
              <mxPoint x="570" y="200" />
            </Array>
          </mxGeometry>
        </mxCell>
        <mxCell id="M2EjxPVko-mRUe3qHApl-5" value="yes" style="rhombus;whiteSpace=wrap;html=1;" vertex="1" parent="WIyWlLk6GJQsqaUBKTNV-1">
          <mxGeometry x="610" y="260" width="80" height="80" as="geometry" />
        </mxCell>
        <mxCell id="M2EjxPVko-mRUe3qHApl-27" value="no" style="edgeStyle=orthogonalEdgeStyle;rounded=0;orthogonalLoop=1;jettySize=auto;html=1;entryX=1;entryY=0.5;entryDx=0;entryDy=0;" edge="1" parent="WIyWlLk6GJQsqaUBKTNV-1" source="M2EjxPVko-mRUe3qHApl-26" target="M2EjxPVko-mRUe3qHApl-3">
          <mxGeometry relative="1" as="geometry">
            <mxPoint x="760" y="210" as="targetPoint" />
            <Array as="points">
              <mxPoint x="780" y="390" />
              <mxPoint x="780" y="200" />
            </Array>
          </mxGeometry>
        </mxCell>
        <mxCell id="M2EjxPVko-mRUe3qHApl-29" value="" style="edgeStyle=orthogonalEdgeStyle;rounded=0;orthogonalLoop=1;jettySize=auto;html=1;" edge="1" parent="WIyWlLk6GJQsqaUBKTNV-1" source="M2EjxPVko-mRUe3qHApl-26" target="M2EjxPVko-mRUe3qHApl-28">
          <mxGeometry relative="1" as="geometry" />
        </mxCell>
        <mxCell id="M2EjxPVko-mRUe3qHApl-26" value="is it 1000?" style="rounded=0;whiteSpace=wrap;html=1;" vertex="1" parent="WIyWlLk6GJQsqaUBKTNV-1">
          <mxGeometry x="590" y="360" width="120" height="60" as="geometry" />
        </mxCell>
        <mxCell id="M2EjxPVko-mRUe3qHApl-31" value="" style="edgeStyle=orthogonalEdgeStyle;rounded=0;orthogonalLoop=1;jettySize=auto;html=1;" edge="1" parent="WIyWlLk6GJQsqaUBKTNV-1" source="M2EjxPVko-mRUe3qHApl-28" target="M2EjxPVko-mRUe3qHApl-30">
          <mxGeometry relative="1" as="geometry" />
        </mxCell>
        <mxCell id="M2EjxPVko-mRUe3qHApl-37" value="no" style="edgeStyle=orthogonalEdgeStyle;rounded=0;orthogonalLoop=1;jettySize=auto;html=1;entryX=0;entryY=0.5;entryDx=0;entryDy=0;" edge="1" parent="WIyWlLk6GJQsqaUBKTNV-1" source="M2EjxPVko-mRUe3qHApl-28" target="M2EjxPVko-mRUe3qHApl-26">
          <mxGeometry relative="1" as="geometry">
            <Array as="points">
              <mxPoint x="650" y="440" />
              <mxPoint x="570" y="440" />
              <mxPoint x="570" y="390" />
            </Array>
          </mxGeometry>
        </mxCell>
        <mxCell id="M2EjxPVko-mRUe3qHApl-28" value="yes" style="rhombus;whiteSpace=wrap;html=1;rounded=0;" vertex="1" parent="WIyWlLk6GJQsqaUBKTNV-1">
          <mxGeometry x="610" y="445" width="80" height="80" as="geometry" />
        </mxCell>
        <mxCell id="M2EjxPVko-mRUe3qHApl-33" value="" style="edgeStyle=orthogonalEdgeStyle;rounded=0;orthogonalLoop=1;jettySize=auto;html=1;" edge="1" parent="WIyWlLk6GJQsqaUBKTNV-1" source="M2EjxPVko-mRUe3qHApl-30" target="M2EjxPVko-mRUe3qHApl-32">
          <mxGeometry relative="1" as="geometry" />
        </mxCell>
        <mxCell id="M2EjxPVko-mRUe3qHApl-30" value="Enter yearly contribution in dollars" style="ellipse;whiteSpace=wrap;html=1;rounded=0;" vertex="1" parent="WIyWlLk6GJQsqaUBKTNV-1">
          <mxGeometry x="590" y="550" width="120" height="80" as="geometry" />
        </mxCell>
        <mxCell id="M2EjxPVko-mRUe3qHApl-35" value="" style="edgeStyle=orthogonalEdgeStyle;rounded=0;orthogonalLoop=1;jettySize=auto;html=1;" edge="1" parent="WIyWlLk6GJQsqaUBKTNV-1" source="M2EjxPVko-mRUe3qHApl-32" target="M2EjxPVko-mRUe3qHApl-34">
          <mxGeometry relative="1" as="geometry" />
        </mxCell>
        <mxCell id="M2EjxPVko-mRUe3qHApl-32" value="is it a number?" style="whiteSpace=wrap;html=1;rounded=0;" vertex="1" parent="WIyWlLk6GJQsqaUBKTNV-1">
          <mxGeometry x="590" y="650" width="120" height="60" as="geometry" />
        </mxCell>
        <mxCell id="M2EjxPVko-mRUe3qHApl-39" value="no" style="edgeStyle=orthogonalEdgeStyle;rounded=0;orthogonalLoop=1;jettySize=auto;html=1;" edge="1" parent="WIyWlLk6GJQsqaUBKTNV-1" source="M2EjxPVko-mRUe3qHApl-34" target="M2EjxPVko-mRUe3qHApl-32">
          <mxGeometry relative="1" as="geometry">
            <mxPoint x="720" y="680" as="targetPoint" />
            <Array as="points">
              <mxPoint x="650" y="720" />
              <mxPoint x="730" y="720" />
              <mxPoint x="730" y="680" />
            </Array>
          </mxGeometry>
        </mxCell>
        <mxCell id="M2EjxPVko-mRUe3qHApl-42" value="" style="edgeStyle=orthogonalEdgeStyle;rounded=0;orthogonalLoop=1;jettySize=auto;html=1;" edge="1" parent="WIyWlLk6GJQsqaUBKTNV-1" source="M2EjxPVko-mRUe3qHApl-34" target="M2EjxPVko-mRUe3qHApl-41">
          <mxGeometry relative="1" as="geometry" />
        </mxCell>
        <mxCell id="M2EjxPVko-mRUe3qHApl-34" value="yes" style="rhombus;whiteSpace=wrap;html=1;rounded=0;" vertex="1" parent="WIyWlLk6GJQsqaUBKTNV-1">
          <mxGeometry x="610" y="730" width="80" height="80" as="geometry" />
        </mxCell>
        <mxCell id="M2EjxPVko-mRUe3qHApl-45" value="no" style="edgeStyle=orthogonalEdgeStyle;rounded=0;orthogonalLoop=1;jettySize=auto;html=1;entryX=0;entryY=0.75;entryDx=0;entryDy=0;" edge="1" parent="WIyWlLk6GJQsqaUBKTNV-1" source="M2EjxPVko-mRUe3qHApl-41" target="M2EjxPVko-mRUe3qHApl-32">
          <mxGeometry relative="1" as="geometry">
            <mxPoint x="580" y="690" as="targetPoint" />
            <Array as="points">
              <mxPoint x="550" y="860" />
              <mxPoint x="550" y="695" />
            </Array>
          </mxGeometry>
        </mxCell>
        <mxCell id="M2EjxPVko-mRUe3qHApl-47" value="" style="edgeStyle=orthogonalEdgeStyle;rounded=0;orthogonalLoop=1;jettySize=auto;html=1;" edge="1" parent="WIyWlLk6GJQsqaUBKTNV-1" source="M2EjxPVko-mRUe3qHApl-41" target="M2EjxPVko-mRUe3qHApl-46">
          <mxGeometry relative="1" as="geometry" />
        </mxCell>
        <mxCell id="M2EjxPVko-mRUe3qHApl-41" value="is it 100?" style="whiteSpace=wrap;html=1;rounded=0;" vertex="1" parent="WIyWlLk6GJQsqaUBKTNV-1">
          <mxGeometry x="590" y="830" width="120" height="60" as="geometry" />
        </mxCell>
        <mxCell id="M2EjxPVko-mRUe3qHApl-49" value="" style="edgeStyle=orthogonalEdgeStyle;rounded=0;orthogonalLoop=1;jettySize=auto;html=1;" edge="1" parent="WIyWlLk6GJQsqaUBKTNV-1" source="M2EjxPVko-mRUe3qHApl-46" target="M2EjxPVko-mRUe3qHApl-48">
          <mxGeometry relative="1" as="geometry" />
        </mxCell>
        <mxCell id="M2EjxPVko-mRUe3qHApl-46" value="yes" style="rhombus;whiteSpace=wrap;html=1;rounded=0;" vertex="1" parent="WIyWlLk6GJQsqaUBKTNV-1">
          <mxGeometry x="610" y="910" width="80" height="80" as="geometry" />
        </mxCell>
        <mxCell id="M2EjxPVko-mRUe3qHApl-51" value="" style="edgeStyle=orthogonalEdgeStyle;rounded=0;orthogonalLoop=1;jettySize=auto;html=1;" edge="1" parent="WIyWlLk6GJQsqaUBKTNV-1" source="M2EjxPVko-mRUe3qHApl-48" target="M2EjxPVko-mRUe3qHApl-50">
          <mxGeometry relative="1" as="geometry" />
        </mxCell>
        <mxCell id="M2EjxPVko-mRUe3qHApl-48" value="Enter number of years for the report" style="ellipse;whiteSpace=wrap;html=1;rounded=0;" vertex="1" parent="WIyWlLk6GJQsqaUBKTNV-1">
          <mxGeometry x="590" y="1010" width="120" height="80" as="geometry" />
        </mxCell>
        <mxCell id="M2EjxPVko-mRUe3qHApl-50" value="is it&amp;nbsp;" style="whiteSpace=wrap;html=1;rounded=0;" vertex="1" parent="WIyWlLk6GJQsqaUBKTNV-1">
          <mxGeometry x="590" y="1099" width="120" height="60" as="geometry" />
        </mxCell>
        <mxCell id="M2EjxPVko-mRUe3qHApl-54" value="" style="edgeStyle=orthogonalEdgeStyle;rounded=0;orthogonalLoop=1;jettySize=auto;html=1;" edge="1" parent="WIyWlLk6GJQsqaUBKTNV-1" source="M2EjxPVko-mRUe3qHApl-52" target="M2EjxPVko-mRUe3qHApl-53">
          <mxGeometry relative="1" as="geometry" />
        </mxCell>
        <mxCell id="M2EjxPVko-mRUe3qHApl-52" value="Enter starting balance in dollars." style="ellipse;whiteSpace=wrap;html=1;" vertex="1" parent="WIyWlLk6GJQsqaUBKTNV-1">
          <mxGeometry x="340" y="1200" width="120" height="80" as="geometry" />
        </mxCell>
        <mxCell id="M2EjxPVko-mRUe3qHApl-56" value="" style="edgeStyle=orthogonalEdgeStyle;rounded=0;orthogonalLoop=1;jettySize=auto;html=1;" edge="1" parent="WIyWlLk6GJQsqaUBKTNV-1" source="M2EjxPVko-mRUe3qHApl-53" target="M2EjxPVko-mRUe3qHApl-55">
          <mxGeometry relative="1" as="geometry" />
        </mxCell>
        <mxCell id="M2EjxPVko-mRUe3qHApl-85" value="no" style="edgeStyle=orthogonalEdgeStyle;rounded=0;orthogonalLoop=1;jettySize=auto;html=1;exitX=1;exitY=0.25;exitDx=0;exitDy=0;entryX=1;entryY=0.5;entryDx=0;entryDy=0;" edge="1" parent="WIyWlLk6GJQsqaUBKTNV-1" source="M2EjxPVko-mRUe3qHApl-53" target="M2EjxPVko-mRUe3qHApl-52">
          <mxGeometry relative="1" as="geometry" />
        </mxCell>
        <mxCell id="M2EjxPVko-mRUe3qHApl-53" value="is it a number?" style="whiteSpace=wrap;html=1;" vertex="1" parent="WIyWlLk6GJQsqaUBKTNV-1">
          <mxGeometry x="340" y="1300" width="120" height="60" as="geometry" />
        </mxCell>
        <mxCell id="M2EjxPVko-mRUe3qHApl-58" value="" style="edgeStyle=orthogonalEdgeStyle;rounded=0;orthogonalLoop=1;jettySize=auto;html=1;" edge="1" parent="WIyWlLk6GJQsqaUBKTNV-1" source="M2EjxPVko-mRUe3qHApl-55" target="M2EjxPVko-mRUe3qHApl-57">
          <mxGeometry relative="1" as="geometry" />
        </mxCell>
        <mxCell id="M2EjxPVko-mRUe3qHApl-55" value="yes" style="rhombus;whiteSpace=wrap;html=1;" vertex="1" parent="WIyWlLk6GJQsqaUBKTNV-1">
          <mxGeometry x="360" y="1380" width="80" height="80" as="geometry" />
        </mxCell>
        <mxCell id="M2EjxPVko-mRUe3qHApl-60" value="" style="edgeStyle=orthogonalEdgeStyle;rounded=0;orthogonalLoop=1;jettySize=auto;html=1;" edge="1" parent="WIyWlLk6GJQsqaUBKTNV-1" source="M2EjxPVko-mRUe3qHApl-57" target="M2EjxPVko-mRUe3qHApl-59">
          <mxGeometry relative="1" as="geometry" />
        </mxCell>
        <mxCell id="M2EjxPVko-mRUe3qHApl-77" value="no" style="edgeStyle=orthogonalEdgeStyle;rounded=0;orthogonalLoop=1;jettySize=auto;html=1;entryX=1.023;entryY=0.388;entryDx=0;entryDy=0;entryPerimeter=0;" edge="1" parent="WIyWlLk6GJQsqaUBKTNV-1" source="M2EjxPVko-mRUe3qHApl-57" target="M2EjxPVko-mRUe3qHApl-52">
          <mxGeometry relative="1" as="geometry">
            <Array as="points">
              <mxPoint x="510" y="1510" />
              <mxPoint x="510" y="1231" />
            </Array>
          </mxGeometry>
        </mxCell>
        <mxCell id="M2EjxPVko-mRUe3qHApl-57" value="is it in dollars" style="whiteSpace=wrap;html=1;" vertex="1" parent="WIyWlLk6GJQsqaUBKTNV-1">
          <mxGeometry x="340" y="1480" width="120" height="60" as="geometry" />
        </mxCell>
        <mxCell id="M2EjxPVko-mRUe3qHApl-62" value="" style="edgeStyle=orthogonalEdgeStyle;rounded=0;orthogonalLoop=1;jettySize=auto;html=1;" edge="1" parent="WIyWlLk6GJQsqaUBKTNV-1" source="M2EjxPVko-mRUe3qHApl-59" target="M2EjxPVko-mRUe3qHApl-61">
          <mxGeometry relative="1" as="geometry" />
        </mxCell>
        <mxCell id="M2EjxPVko-mRUe3qHApl-59" value="yes" style="rhombus;whiteSpace=wrap;html=1;" vertex="1" parent="WIyWlLk6GJQsqaUBKTNV-1">
          <mxGeometry x="360" y="1560" width="80" height="80" as="geometry" />
        </mxCell>
        <mxCell id="M2EjxPVko-mRUe3qHApl-65" value="" style="edgeStyle=orthogonalEdgeStyle;rounded=0;orthogonalLoop=1;jettySize=auto;html=1;" edge="1" parent="WIyWlLk6GJQsqaUBKTNV-1" source="M2EjxPVko-mRUe3qHApl-61" target="M2EjxPVko-mRUe3qHApl-64">
          <mxGeometry relative="1" as="geometry" />
        </mxCell>
        <mxCell id="M2EjxPVko-mRUe3qHApl-76" value="yes" style="edgeStyle=orthogonalEdgeStyle;rounded=0;orthogonalLoop=1;jettySize=auto;html=1;entryX=0;entryY=0.5;entryDx=0;entryDy=0;" edge="1" parent="WIyWlLk6GJQsqaUBKTNV-1" source="M2EjxPVko-mRUe3qHApl-61" target="M2EjxPVko-mRUe3qHApl-52">
          <mxGeometry relative="1" as="geometry">
            <mxPoint x="280" y="1360" as="targetPoint" />
            <Array as="points">
              <mxPoint x="270" y="1690" />
              <mxPoint x="270" y="1240" />
            </Array>
          </mxGeometry>
        </mxCell>
        <mxCell id="M2EjxPVko-mRUe3qHApl-61" value="does it have any cents added on?" style="whiteSpace=wrap;html=1;" vertex="1" parent="WIyWlLk6GJQsqaUBKTNV-1">
          <mxGeometry x="340" y="1660" width="120" height="60" as="geometry" />
        </mxCell>
        <mxCell id="M2EjxPVko-mRUe3qHApl-67" value="" style="edgeStyle=orthogonalEdgeStyle;rounded=0;orthogonalLoop=1;jettySize=auto;html=1;" edge="1" parent="WIyWlLk6GJQsqaUBKTNV-1" source="M2EjxPVko-mRUe3qHApl-64" target="M2EjxPVko-mRUe3qHApl-66">
          <mxGeometry relative="1" as="geometry" />
        </mxCell>
        <mxCell id="M2EjxPVko-mRUe3qHApl-64" value="no" style="rhombus;whiteSpace=wrap;html=1;" vertex="1" parent="WIyWlLk6GJQsqaUBKTNV-1">
          <mxGeometry x="360" y="1740" width="80" height="80" as="geometry" />
        </mxCell>
        <mxCell id="M2EjxPVko-mRUe3qHApl-69" value="" style="edgeStyle=orthogonalEdgeStyle;rounded=0;orthogonalLoop=1;jettySize=auto;html=1;" edge="1" parent="WIyWlLk6GJQsqaUBKTNV-1" source="M2EjxPVko-mRUe3qHApl-66" target="M2EjxPVko-mRUe3qHApl-68">
          <mxGeometry relative="1" as="geometry" />
        </mxCell>
        <mxCell id="M2EjxPVko-mRUe3qHApl-75" value="yes" style="edgeStyle=orthogonalEdgeStyle;rounded=0;orthogonalLoop=1;jettySize=auto;html=1;exitX=0;exitY=0.75;exitDx=0;exitDy=0;" edge="1" parent="WIyWlLk6GJQsqaUBKTNV-1" source="M2EjxPVko-mRUe3qHApl-66" target="M2EjxPVko-mRUe3qHApl-52">
          <mxGeometry relative="1" as="geometry">
            <mxPoint x="300" y="1950" as="sourcePoint" />
            <mxPoint x="310" y="1230" as="targetPoint" />
            <Array as="points">
              <mxPoint x="340" y="1870" />
              <mxPoint x="200" y="1870" />
              <mxPoint x="200" y="1230" />
            </Array>
          </mxGeometry>
        </mxCell>
        <mxCell id="M2EjxPVko-mRUe3qHApl-66" value="is there any foreign symbols or letters?" style="whiteSpace=wrap;html=1;" vertex="1" parent="WIyWlLk6GJQsqaUBKTNV-1">
          <mxGeometry x="340" y="1840" width="120" height="60" as="geometry" />
        </mxCell>
        <mxCell id="M2EjxPVko-mRUe3qHApl-73" value="" style="edgeStyle=orthogonalEdgeStyle;rounded=0;orthogonalLoop=1;jettySize=auto;html=1;" edge="1" parent="WIyWlLk6GJQsqaUBKTNV-1" source="M2EjxPVko-mRUe3qHApl-68" target="M2EjxPVko-mRUe3qHApl-72">
          <mxGeometry relative="1" as="geometry" />
        </mxCell>
        <mxCell id="M2EjxPVko-mRUe3qHApl-68" value="no" style="rhombus;whiteSpace=wrap;html=1;" vertex="1" parent="WIyWlLk6GJQsqaUBKTNV-1">
          <mxGeometry x="360" y="1920" width="80" height="80" as="geometry" />
        </mxCell>
        <mxCell id="M2EjxPVko-mRUe3qHApl-74" value="no" style="edgeStyle=orthogonalEdgeStyle;rounded=0;orthogonalLoop=1;jettySize=auto;html=1;" edge="1" parent="WIyWlLk6GJQsqaUBKTNV-1" source="M2EjxPVko-mRUe3qHApl-72">
          <mxGeometry relative="1" as="geometry">
            <mxPoint x="460" y="1230" as="targetPoint" />
            <Array as="points">
              <mxPoint x="680" y="2050" />
              <mxPoint x="680" y="1220" />
              <mxPoint x="460" y="1220" />
            </Array>
          </mxGeometry>
        </mxCell>
        <mxCell id="M2EjxPVko-mRUe3qHApl-79" value="" style="edgeStyle=orthogonalEdgeStyle;rounded=0;orthogonalLoop=1;jettySize=auto;html=1;" edge="1" parent="WIyWlLk6GJQsqaUBKTNV-1" source="M2EjxPVko-mRUe3qHApl-72" target="M2EjxPVko-mRUe3qHApl-78">
          <mxGeometry relative="1" as="geometry" />
        </mxCell>
        <mxCell id="M2EjxPVko-mRUe3qHApl-72" value="is it 1000 dollars?" style="whiteSpace=wrap;html=1;" vertex="1" parent="WIyWlLk6GJQsqaUBKTNV-1">
          <mxGeometry x="340" y="2020" width="120" height="60" as="geometry" />
        </mxCell>
        <mxCell id="M2EjxPVko-mRUe3qHApl-81" value="" style="edgeStyle=orthogonalEdgeStyle;rounded=0;orthogonalLoop=1;jettySize=auto;html=1;" edge="1" parent="WIyWlLk6GJQsqaUBKTNV-1" source="M2EjxPVko-mRUe3qHApl-78" target="M2EjxPVko-mRUe3qHApl-80">
          <mxGeometry relative="1" as="geometry" />
        </mxCell>
        <mxCell id="M2EjxPVko-mRUe3qHApl-78" value="yes" style="rhombus;whiteSpace=wrap;html=1;" vertex="1" parent="WIyWlLk6GJQsqaUBKTNV-1">
          <mxGeometry x="360" y="2100" width="80" height="80" as="geometry" />
        </mxCell>
        <mxCell id="M2EjxPVko-mRUe3qHApl-83" value="" style="edgeStyle=orthogonalEdgeStyle;rounded=0;orthogonalLoop=1;jettySize=auto;html=1;" edge="1" parent="WIyWlLk6GJQsqaUBKTNV-1" source="M2EjxPVko-mRUe3qHApl-80" target="M2EjxPVko-mRUe3qHApl-82">
          <mxGeometry relative="1" as="geometry" />
        </mxCell>
        <mxCell id="M2EjxPVko-mRUe3qHApl-99" style="edgeStyle=orthogonalEdgeStyle;rounded=0;orthogonalLoop=1;jettySize=auto;html=1;exitX=0;exitY=0.5;exitDx=0;exitDy=0;" edge="1" parent="WIyWlLk6GJQsqaUBKTNV-1" source="M2EjxPVko-mRUe3qHApl-80">
          <mxGeometry relative="1" as="geometry">
            <mxPoint x="340" y="2230" as="targetPoint" />
          </mxGeometry>
        </mxCell>
        <mxCell id="M2EjxPVko-mRUe3qHApl-80" value="Enter yearly contribution in dollars." style="ellipse;whiteSpace=wrap;html=1;" vertex="1" parent="WIyWlLk6GJQsqaUBKTNV-1">
          <mxGeometry x="340" y="2190" width="120" height="80" as="geometry" />
        </mxCell>
        <mxCell id="M2EjxPVko-mRUe3qHApl-84" value="no" style="edgeStyle=orthogonalEdgeStyle;rounded=0;orthogonalLoop=1;jettySize=auto;html=1;entryX=1;entryY=0.5;entryDx=0;entryDy=0;" edge="1" parent="WIyWlLk6GJQsqaUBKTNV-1" source="M2EjxPVko-mRUe3qHApl-82" target="M2EjxPVko-mRUe3qHApl-80">
          <mxGeometry relative="1" as="geometry">
            <mxPoint x="500" y="2240" as="targetPoint" />
            <Array as="points">
              <mxPoint x="480" y="2290" />
              <mxPoint x="480" y="2230" />
            </Array>
          </mxGeometry>
        </mxCell>
        <mxCell id="M2EjxPVko-mRUe3qHApl-87" value="" style="edgeStyle=orthogonalEdgeStyle;rounded=0;orthogonalLoop=1;jettySize=auto;html=1;" edge="1" parent="WIyWlLk6GJQsqaUBKTNV-1" source="M2EjxPVko-mRUe3qHApl-82" target="M2EjxPVko-mRUe3qHApl-86">
          <mxGeometry relative="1" as="geometry" />
        </mxCell>
        <mxCell id="M2EjxPVko-mRUe3qHApl-82" value="is it a number?" style="whiteSpace=wrap;html=1;" vertex="1" parent="WIyWlLk6GJQsqaUBKTNV-1">
          <mxGeometry x="340" y="2280" width="130" height="60" as="geometry" />
        </mxCell>
        <mxCell id="M2EjxPVko-mRUe3qHApl-89" value="" style="edgeStyle=orthogonalEdgeStyle;rounded=0;orthogonalLoop=1;jettySize=auto;html=1;" edge="1" parent="WIyWlLk6GJQsqaUBKTNV-1" source="M2EjxPVko-mRUe3qHApl-86" target="M2EjxPVko-mRUe3qHApl-88">
          <mxGeometry relative="1" as="geometry" />
        </mxCell>
        <mxCell id="M2EjxPVko-mRUe3qHApl-86" value="yes" style="rhombus;whiteSpace=wrap;html=1;" vertex="1" parent="WIyWlLk6GJQsqaUBKTNV-1">
          <mxGeometry x="365" y="2360" width="80" height="80" as="geometry" />
        </mxCell>
        <mxCell id="M2EjxPVko-mRUe3qHApl-90" value="no" style="edgeStyle=orthogonalEdgeStyle;rounded=0;orthogonalLoop=1;jettySize=auto;html=1;entryX=0.99;entryY=0.332;entryDx=0;entryDy=0;entryPerimeter=0;" edge="1" parent="WIyWlLk6GJQsqaUBKTNV-1" source="M2EjxPVko-mRUe3qHApl-88" target="M2EjxPVko-mRUe3qHApl-80">
          <mxGeometry relative="1" as="geometry">
            <mxPoint x="510" y="2320" as="targetPoint" />
            <Array as="points">
              <mxPoint x="600" y="2490" />
              <mxPoint x="600" y="2217" />
            </Array>
          </mxGeometry>
        </mxCell>
        <mxCell id="M2EjxPVko-mRUe3qHApl-92" value="" style="edgeStyle=orthogonalEdgeStyle;rounded=0;orthogonalLoop=1;jettySize=auto;html=1;" edge="1" parent="WIyWlLk6GJQsqaUBKTNV-1" source="M2EjxPVko-mRUe3qHApl-88" target="M2EjxPVko-mRUe3qHApl-91">
          <mxGeometry relative="1" as="geometry" />
        </mxCell>
        <mxCell id="M2EjxPVko-mRUe3qHApl-88" value="is it in dollars" style="whiteSpace=wrap;html=1;" vertex="1" parent="WIyWlLk6GJQsqaUBKTNV-1">
          <mxGeometry x="345" y="2460" width="120" height="60" as="geometry" />
        </mxCell>
        <mxCell id="M2EjxPVko-mRUe3qHApl-94" value="" style="edgeStyle=orthogonalEdgeStyle;rounded=0;orthogonalLoop=1;jettySize=auto;html=1;" edge="1" parent="WIyWlLk6GJQsqaUBKTNV-1" source="M2EjxPVko-mRUe3qHApl-91" target="M2EjxPVko-mRUe3qHApl-93">
          <mxGeometry relative="1" as="geometry" />
        </mxCell>
        <mxCell id="M2EjxPVko-mRUe3qHApl-91" value="yes" style="rhombus;whiteSpace=wrap;html=1;" vertex="1" parent="WIyWlLk6GJQsqaUBKTNV-1">
          <mxGeometry x="365" y="2540" width="80" height="80" as="geometry" />
        </mxCell>
        <mxCell id="M2EjxPVko-mRUe3qHApl-96" value="" style="edgeStyle=orthogonalEdgeStyle;rounded=0;orthogonalLoop=1;jettySize=auto;html=1;" edge="1" parent="WIyWlLk6GJQsqaUBKTNV-1" source="M2EjxPVko-mRUe3qHApl-93" target="M2EjxPVko-mRUe3qHApl-95">
          <mxGeometry relative="1" as="geometry" />
        </mxCell>
        <mxCell id="M2EjxPVko-mRUe3qHApl-98" value="yes" style="edgeStyle=orthogonalEdgeStyle;rounded=0;orthogonalLoop=1;jettySize=auto;html=1;exitX=0;exitY=0.5;exitDx=0;exitDy=0;entryX=0;entryY=0.5;entryDx=0;entryDy=0;" edge="1" parent="WIyWlLk6GJQsqaUBKTNV-1" source="M2EjxPVko-mRUe3qHApl-93" target="M2EjxPVko-mRUe3qHApl-80">
          <mxGeometry relative="1" as="geometry">
            <mxPoint x="340" y="2240" as="targetPoint" />
            <Array as="points">
              <mxPoint x="300" y="2670" />
              <mxPoint x="300" y="2230" />
            </Array>
          </mxGeometry>
        </mxCell>
        <mxCell id="M2EjxPVko-mRUe3qHApl-93" value="does it have cents added on?" style="whiteSpace=wrap;html=1;" vertex="1" parent="WIyWlLk6GJQsqaUBKTNV-1">
          <mxGeometry x="345" y="2640" width="120" height="60" as="geometry" />
        </mxCell>
        <mxCell id="M2EjxPVko-mRUe3qHApl-101" value="" style="edgeStyle=orthogonalEdgeStyle;rounded=0;orthogonalLoop=1;jettySize=auto;html=1;" edge="1" parent="WIyWlLk6GJQsqaUBKTNV-1" source="M2EjxPVko-mRUe3qHApl-95" target="M2EjxPVko-mRUe3qHApl-100">
          <mxGeometry relative="1" as="geometry" />
        </mxCell>
        <mxCell id="M2EjxPVko-mRUe3qHApl-95" value="no" style="rhombus;whiteSpace=wrap;html=1;" vertex="1" parent="WIyWlLk6GJQsqaUBKTNV-1">
          <mxGeometry x="365" y="2720" width="80" height="80" as="geometry" />
        </mxCell>
        <mxCell id="M2EjxPVko-mRUe3qHApl-102" value="yes" style="edgeStyle=orthogonalEdgeStyle;rounded=0;orthogonalLoop=1;jettySize=auto;html=1;" edge="1" parent="WIyWlLk6GJQsqaUBKTNV-1" source="M2EjxPVko-mRUe3qHApl-100" target="M2EjxPVko-mRUe3qHApl-80">
          <mxGeometry relative="1" as="geometry">
            <Array as="points">
              <mxPoint x="140" y="2850" />
              <mxPoint x="140" y="2210" />
            </Array>
          </mxGeometry>
        </mxCell>
        <mxCell id="M2EjxPVko-mRUe3qHApl-104" value="" style="edgeStyle=orthogonalEdgeStyle;rounded=0;orthogonalLoop=1;jettySize=auto;html=1;" edge="1" parent="WIyWlLk6GJQsqaUBKTNV-1" source="M2EjxPVko-mRUe3qHApl-100" target="M2EjxPVko-mRUe3qHApl-103">
          <mxGeometry relative="1" as="geometry" />
        </mxCell>
        <mxCell id="M2EjxPVko-mRUe3qHApl-100" value="any foreign symbols or letters?" style="whiteSpace=wrap;html=1;" vertex="1" parent="WIyWlLk6GJQsqaUBKTNV-1">
          <mxGeometry x="345" y="2820" width="120" height="60" as="geometry" />
        </mxCell>
        <mxCell id="M2EjxPVko-mRUe3qHApl-109" value="" style="edgeStyle=orthogonalEdgeStyle;rounded=0;orthogonalLoop=1;jettySize=auto;html=1;" edge="1" parent="WIyWlLk6GJQsqaUBKTNV-1" source="M2EjxPVko-mRUe3qHApl-103" target="M2EjxPVko-mRUe3qHApl-108">
          <mxGeometry relative="1" as="geometry" />
        </mxCell>
        <mxCell id="M2EjxPVko-mRUe3qHApl-103" value="no" style="rhombus;whiteSpace=wrap;html=1;" vertex="1" parent="WIyWlLk6GJQsqaUBKTNV-1">
          <mxGeometry x="365" y="2910" width="80" height="80" as="geometry" />
        </mxCell>
        <mxCell id="M2EjxPVko-mRUe3qHApl-111" value="no" style="edgeStyle=orthogonalEdgeStyle;rounded=0;orthogonalLoop=1;jettySize=auto;html=1;entryX=0;entryY=0.375;entryDx=0;entryDy=0;entryPerimeter=0;" edge="1" parent="WIyWlLk6GJQsqaUBKTNV-1" source="M2EjxPVko-mRUe3qHApl-108" target="M2EjxPVko-mRUe3qHApl-80">
          <mxGeometry relative="1" as="geometry">
            <mxPoint x="220" y="2220" as="targetPoint" />
            <Array as="points">
              <mxPoint x="220" y="3040" />
              <mxPoint x="220" y="2220" />
            </Array>
          </mxGeometry>
        </mxCell>
        <mxCell id="M2EjxPVko-mRUe3qHApl-114" value="" style="edgeStyle=orthogonalEdgeStyle;rounded=0;orthogonalLoop=1;jettySize=auto;html=1;" edge="1" parent="WIyWlLk6GJQsqaUBKTNV-1" source="M2EjxPVko-mRUe3qHApl-108" target="M2EjxPVko-mRUe3qHApl-113">
          <mxGeometry relative="1" as="geometry" />
        </mxCell>
        <mxCell id="M2EjxPVko-mRUe3qHApl-108" value="is it 100 dollars?" style="whiteSpace=wrap;html=1;" vertex="1" parent="WIyWlLk6GJQsqaUBKTNV-1">
          <mxGeometry x="345" y="3010" width="120" height="60" as="geometry" />
        </mxCell>
        <mxCell id="M2EjxPVko-mRUe3qHApl-116" value="" style="edgeStyle=orthogonalEdgeStyle;rounded=0;orthogonalLoop=1;jettySize=auto;html=1;" edge="1" parent="WIyWlLk6GJQsqaUBKTNV-1" source="M2EjxPVko-mRUe3qHApl-113" target="M2EjxPVko-mRUe3qHApl-115">
          <mxGeometry relative="1" as="geometry" />
        </mxCell>
        <mxCell id="M2EjxPVko-mRUe3qHApl-113" value="yes" style="rhombus;whiteSpace=wrap;html=1;" vertex="1" parent="WIyWlLk6GJQsqaUBKTNV-1">
          <mxGeometry x="365" y="3090" width="80" height="80" as="geometry" />
        </mxCell>
        <mxCell id="M2EjxPVko-mRUe3qHApl-118" value="" style="edgeStyle=orthogonalEdgeStyle;rounded=0;orthogonalLoop=1;jettySize=auto;html=1;" edge="1" parent="WIyWlLk6GJQsqaUBKTNV-1" source="M2EjxPVko-mRUe3qHApl-115" target="M2EjxPVko-mRUe3qHApl-117">
          <mxGeometry relative="1" as="geometry" />
        </mxCell>
        <mxCell id="M2EjxPVko-mRUe3qHApl-115" value="Enter average return on investment as %" style="ellipse;whiteSpace=wrap;html=1;" vertex="1" parent="WIyWlLk6GJQsqaUBKTNV-1">
          <mxGeometry x="345" y="3190" width="120" height="80" as="geometry" />
        </mxCell>
        <mxCell id="M2EjxPVko-mRUe3qHApl-119" value="no" style="edgeStyle=orthogonalEdgeStyle;rounded=0;orthogonalLoop=1;jettySize=auto;html=1;entryX=1;entryY=0.5;entryDx=0;entryDy=0;" edge="1" parent="WIyWlLk6GJQsqaUBKTNV-1" source="M2EjxPVko-mRUe3qHApl-117" target="M2EjxPVko-mRUe3qHApl-115">
          <mxGeometry relative="1" as="geometry">
            <Array as="points">
              <mxPoint x="485" y="3310" />
              <mxPoint x="485" y="3230" />
            </Array>
          </mxGeometry>
        </mxCell>
        <mxCell id="M2EjxPVko-mRUe3qHApl-121" value="" style="edgeStyle=orthogonalEdgeStyle;rounded=0;orthogonalLoop=1;jettySize=auto;html=1;" edge="1" parent="WIyWlLk6GJQsqaUBKTNV-1" source="M2EjxPVko-mRUe3qHApl-117" target="M2EjxPVko-mRUe3qHApl-120">
          <mxGeometry relative="1" as="geometry" />
        </mxCell>
        <mxCell id="M2EjxPVko-mRUe3qHApl-117" value="is it a number" style="whiteSpace=wrap;html=1;" vertex="1" parent="WIyWlLk6GJQsqaUBKTNV-1">
          <mxGeometry x="345" y="3290" width="120" height="60" as="geometry" />
        </mxCell>
        <mxCell id="M2EjxPVko-mRUe3qHApl-123" value="" style="edgeStyle=orthogonalEdgeStyle;rounded=0;orthogonalLoop=1;jettySize=auto;html=1;" edge="1" parent="WIyWlLk6GJQsqaUBKTNV-1" source="M2EjxPVko-mRUe3qHApl-120" target="M2EjxPVko-mRUe3qHApl-122">
          <mxGeometry relative="1" as="geometry" />
        </mxCell>
        <mxCell id="M2EjxPVko-mRUe3qHApl-120" value="yes" style="rhombus;whiteSpace=wrap;html=1;" vertex="1" parent="WIyWlLk6GJQsqaUBKTNV-1">
          <mxGeometry x="365" y="3370" width="80" height="80" as="geometry" />
        </mxCell>
        <mxCell id="M2EjxPVko-mRUe3qHApl-125" value="" style="edgeStyle=orthogonalEdgeStyle;rounded=0;orthogonalLoop=1;jettySize=auto;html=1;" edge="1" parent="WIyWlLk6GJQsqaUBKTNV-1" source="M2EjxPVko-mRUe3qHApl-122" target="M2EjxPVko-mRUe3qHApl-124">
          <mxGeometry relative="1" as="geometry" />
        </mxCell>
        <mxCell id="M2EjxPVko-mRUe3qHApl-132" value="no" style="edgeStyle=orthogonalEdgeStyle;rounded=0;orthogonalLoop=1;jettySize=auto;html=1;entryX=0.995;entryY=0.343;entryDx=0;entryDy=0;entryPerimeter=0;" edge="1" parent="WIyWlLk6GJQsqaUBKTNV-1" source="M2EjxPVko-mRUe3qHApl-122" target="M2EjxPVko-mRUe3qHApl-115">
          <mxGeometry relative="1" as="geometry">
            <mxPoint x="500" y="3220" as="targetPoint" />
            <Array as="points">
              <mxPoint x="500" y="3510" />
              <mxPoint x="500" y="3217" />
            </Array>
          </mxGeometry>
        </mxCell>
        <mxCell id="M2EjxPVko-mRUe3qHApl-122" value="is it a percentage" style="whiteSpace=wrap;html=1;" vertex="1" parent="WIyWlLk6GJQsqaUBKTNV-1">
          <mxGeometry x="345" y="3480" width="120" height="60" as="geometry" />
        </mxCell>
        <mxCell id="M2EjxPVko-mRUe3qHApl-128" value="" style="edgeStyle=orthogonalEdgeStyle;rounded=0;orthogonalLoop=1;jettySize=auto;html=1;" edge="1" parent="WIyWlLk6GJQsqaUBKTNV-1" source="M2EjxPVko-mRUe3qHApl-124" target="M2EjxPVko-mRUe3qHApl-127">
          <mxGeometry relative="1" as="geometry" />
        </mxCell>
        <mxCell id="M2EjxPVko-mRUe3qHApl-124" value="yes" style="rhombus;whiteSpace=wrap;html=1;" vertex="1" parent="WIyWlLk6GJQsqaUBKTNV-1">
          <mxGeometry x="365" y="3570" width="80" height="80" as="geometry" />
        </mxCell>
        <mxCell id="M2EjxPVko-mRUe3qHApl-130" value="" style="edgeStyle=orthogonalEdgeStyle;rounded=0;orthogonalLoop=1;jettySize=auto;html=1;" edge="1" parent="WIyWlLk6GJQsqaUBKTNV-1" source="M2EjxPVko-mRUe3qHApl-127" target="M2EjxPVko-mRUe3qHApl-129">
          <mxGeometry relative="1" as="geometry" />
        </mxCell>
        <mxCell id="M2EjxPVko-mRUe3qHApl-131" style="edgeStyle=orthogonalEdgeStyle;rounded=0;orthogonalLoop=1;jettySize=auto;html=1;" edge="1" parent="WIyWlLk6GJQsqaUBKTNV-1" source="M2EjxPVko-mRUe3qHApl-127">
          <mxGeometry relative="1" as="geometry">
            <mxPoint x="464" y="3210" as="targetPoint" />
            <Array as="points">
              <mxPoint x="520" y="3700" />
              <mxPoint x="520" y="3210" />
              <mxPoint x="464" y="3210" />
            </Array>
          </mxGeometry>
        </mxCell>
        <mxCell id="M2EjxPVko-mRUe3qHApl-127" value="any foreign symbols or letters?" style="whiteSpace=wrap;html=1;" vertex="1" parent="WIyWlLk6GJQsqaUBKTNV-1">
          <mxGeometry x="345" y="3670" width="120" height="60" as="geometry" />
        </mxCell>
        <mxCell id="M2EjxPVko-mRUe3qHApl-134" value="" style="edgeStyle=orthogonalEdgeStyle;rounded=0;orthogonalLoop=1;jettySize=auto;html=1;" edge="1" parent="WIyWlLk6GJQsqaUBKTNV-1" source="M2EjxPVko-mRUe3qHApl-129" target="M2EjxPVko-mRUe3qHApl-133">
          <mxGeometry relative="1" as="geometry" />
        </mxCell>
        <mxCell id="M2EjxPVko-mRUe3qHApl-129" value="no" style="rhombus;whiteSpace=wrap;html=1;" vertex="1" parent="WIyWlLk6GJQsqaUBKTNV-1">
          <mxGeometry x="365" y="3750" width="80" height="80" as="geometry" />
        </mxCell>
        <mxCell id="M2EjxPVko-mRUe3qHApl-135" value="yes" style="edgeStyle=orthogonalEdgeStyle;rounded=0;orthogonalLoop=1;jettySize=auto;html=1;entryX=0;entryY=0.5;entryDx=0;entryDy=0;" edge="1" parent="WIyWlLk6GJQsqaUBKTNV-1" source="M2EjxPVko-mRUe3qHApl-133" target="M2EjxPVko-mRUe3qHApl-115">
          <mxGeometry relative="1" as="geometry">
            <Array as="points">
              <mxPoint x="270" y="3880" />
              <mxPoint x="270" y="3230" />
            </Array>
          </mxGeometry>
        </mxCell>
        <mxCell id="M2EjxPVko-mRUe3qHApl-137" value="" style="edgeStyle=orthogonalEdgeStyle;rounded=0;orthogonalLoop=1;jettySize=auto;html=1;" edge="1" parent="WIyWlLk6GJQsqaUBKTNV-1" source="M2EjxPVko-mRUe3qHApl-133" target="M2EjxPVko-mRUe3qHApl-136">
          <mxGeometry relative="1" as="geometry" />
        </mxCell>
        <mxCell id="M2EjxPVko-mRUe3qHApl-133" value="is there a decimal?" style="whiteSpace=wrap;html=1;" vertex="1" parent="WIyWlLk6GJQsqaUBKTNV-1">
          <mxGeometry x="345" y="3850" width="120" height="60" as="geometry" />
        </mxCell>
        <mxCell id="M2EjxPVko-mRUe3qHApl-139" value="" style="edgeStyle=orthogonalEdgeStyle;rounded=0;orthogonalLoop=1;jettySize=auto;html=1;" edge="1" parent="WIyWlLk6GJQsqaUBKTNV-1" source="M2EjxPVko-mRUe3qHApl-136" target="M2EjxPVko-mRUe3qHApl-138">
          <mxGeometry relative="1" as="geometry" />
        </mxCell>
        <mxCell id="M2EjxPVko-mRUe3qHApl-136" value="no" style="rhombus;whiteSpace=wrap;html=1;" vertex="1" parent="WIyWlLk6GJQsqaUBKTNV-1">
          <mxGeometry x="365" y="3930" width="80" height="80" as="geometry" />
        </mxCell>
        <mxCell id="M2EjxPVko-mRUe3qHApl-141" value="" style="edgeStyle=orthogonalEdgeStyle;rounded=0;orthogonalLoop=1;jettySize=auto;html=1;" edge="1" parent="WIyWlLk6GJQsqaUBKTNV-1" source="M2EjxPVko-mRUe3qHApl-138" target="M2EjxPVko-mRUe3qHApl-140">
          <mxGeometry relative="1" as="geometry" />
        </mxCell>
        <mxCell id="M2EjxPVko-mRUe3qHApl-138" value="enter numbers of years for the report" style="ellipse;whiteSpace=wrap;html=1;" vertex="1" parent="WIyWlLk6GJQsqaUBKTNV-1">
          <mxGeometry x="345" y="4030" width="120" height="80" as="geometry" />
        </mxCell>
        <mxCell id="M2EjxPVko-mRUe3qHApl-142" value="no" style="edgeStyle=orthogonalEdgeStyle;rounded=0;orthogonalLoop=1;jettySize=auto;html=1;entryX=1;entryY=0.5;entryDx=0;entryDy=0;" edge="1" parent="WIyWlLk6GJQsqaUBKTNV-1" source="M2EjxPVko-mRUe3qHApl-140" target="M2EjxPVko-mRUe3qHApl-138">
          <mxGeometry relative="1" as="geometry">
            <Array as="points">
              <mxPoint x="485" y="4140" />
              <mxPoint x="485" y="4070" />
            </Array>
          </mxGeometry>
        </mxCell>
        <mxCell id="M2EjxPVko-mRUe3qHApl-144" value="" style="edgeStyle=orthogonalEdgeStyle;rounded=0;orthogonalLoop=1;jettySize=auto;html=1;" edge="1" parent="WIyWlLk6GJQsqaUBKTNV-1" source="M2EjxPVko-mRUe3qHApl-140" target="M2EjxPVko-mRUe3qHApl-143">
          <mxGeometry relative="1" as="geometry" />
        </mxCell>
        <mxCell id="M2EjxPVko-mRUe3qHApl-140" value="is it a number?" style="whiteSpace=wrap;html=1;" vertex="1" parent="WIyWlLk6GJQsqaUBKTNV-1">
          <mxGeometry x="345" y="4130" width="120" height="40" as="geometry" />
        </mxCell>
        <mxCell id="M2EjxPVko-mRUe3qHApl-146" value="" style="edgeStyle=orthogonalEdgeStyle;rounded=0;orthogonalLoop=1;jettySize=auto;html=1;" edge="1" parent="WIyWlLk6GJQsqaUBKTNV-1" source="M2EjxPVko-mRUe3qHApl-143" target="M2EjxPVko-mRUe3qHApl-145">
          <mxGeometry relative="1" as="geometry" />
        </mxCell>
        <mxCell id="M2EjxPVko-mRUe3qHApl-143" value="yes" style="rhombus;whiteSpace=wrap;html=1;" vertex="1" parent="WIyWlLk6GJQsqaUBKTNV-1">
          <mxGeometry x="365" y="4190" width="80" height="80" as="geometry" />
        </mxCell>
        <mxCell id="M2EjxPVko-mRUe3qHApl-147" value="yes" style="edgeStyle=orthogonalEdgeStyle;rounded=0;orthogonalLoop=1;jettySize=auto;html=1;entryX=0.982;entryY=0.292;entryDx=0;entryDy=0;entryPerimeter=0;" edge="1" parent="WIyWlLk6GJQsqaUBKTNV-1" source="M2EjxPVko-mRUe3qHApl-145" target="M2EjxPVko-mRUe3qHApl-138">
          <mxGeometry relative="1" as="geometry">
            <Array as="points">
              <mxPoint x="550" y="4310" />
              <mxPoint x="550" y="4053" />
            </Array>
          </mxGeometry>
        </mxCell>
        <mxCell id="M2EjxPVko-mRUe3qHApl-149" value="" style="edgeStyle=orthogonalEdgeStyle;rounded=0;orthogonalLoop=1;jettySize=auto;html=1;" edge="1" parent="WIyWlLk6GJQsqaUBKTNV-1" source="M2EjxPVko-mRUe3qHApl-145" target="M2EjxPVko-mRUe3qHApl-148">
          <mxGeometry relative="1" as="geometry" />
        </mxCell>
        <mxCell id="M2EjxPVko-mRUe3qHApl-145" value="is there a decimal" style="whiteSpace=wrap;html=1;" vertex="1" parent="WIyWlLk6GJQsqaUBKTNV-1">
          <mxGeometry x="345" y="4280" width="125" height="60" as="geometry" />
        </mxCell>
        <mxCell id="M2EjxPVko-mRUe3qHApl-151" value="" style="edgeStyle=orthogonalEdgeStyle;rounded=0;orthogonalLoop=1;jettySize=auto;html=1;" edge="1" parent="WIyWlLk6GJQsqaUBKTNV-1" source="M2EjxPVko-mRUe3qHApl-148" target="M2EjxPVko-mRUe3qHApl-150">
          <mxGeometry relative="1" as="geometry" />
        </mxCell>
        <mxCell id="M2EjxPVko-mRUe3qHApl-148" value="no" style="rhombus;whiteSpace=wrap;html=1;" vertex="1" parent="WIyWlLk6GJQsqaUBKTNV-1">
          <mxGeometry x="367.5" y="4360" width="80" height="80" as="geometry" />
        </mxCell>
        <mxCell id="M2EjxPVko-mRUe3qHApl-153" value="" style="edgeStyle=orthogonalEdgeStyle;rounded=0;orthogonalLoop=1;jettySize=auto;html=1;" edge="1" parent="WIyWlLk6GJQsqaUBKTNV-1" source="M2EjxPVko-mRUe3qHApl-150" target="M2EjxPVko-mRUe3qHApl-152">
          <mxGeometry relative="1" as="geometry" />
        </mxCell>
        <mxCell id="M2EjxPVko-mRUe3qHApl-156" value="yes" style="edgeStyle=orthogonalEdgeStyle;rounded=0;orthogonalLoop=1;jettySize=auto;html=1;" edge="1" parent="WIyWlLk6GJQsqaUBKTNV-1" source="M2EjxPVko-mRUe3qHApl-150" target="M2EjxPVko-mRUe3qHApl-155">
          <mxGeometry relative="1" as="geometry" />
        </mxCell>
        <mxCell id="M2EjxPVko-mRUe3qHApl-150" value="is there any symbols or letters?" style="whiteSpace=wrap;html=1;" vertex="1" parent="WIyWlLk6GJQsqaUBKTNV-1">
          <mxGeometry x="347.5" y="4470" width="120" height="60" as="geometry" />
        </mxCell>
        <mxCell id="M2EjxPVko-mRUe3qHApl-159" value="" style="edgeStyle=orthogonalEdgeStyle;rounded=0;orthogonalLoop=1;jettySize=auto;html=1;" edge="1" parent="WIyWlLk6GJQsqaUBKTNV-1" source="M2EjxPVko-mRUe3qHApl-152" target="M2EjxPVko-mRUe3qHApl-158">
          <mxGeometry relative="1" as="geometry" />
        </mxCell>
        <mxCell id="M2EjxPVko-mRUe3qHApl-152" value="no" style="rhombus;whiteSpace=wrap;html=1;" vertex="1" parent="WIyWlLk6GJQsqaUBKTNV-1">
          <mxGeometry x="367.5" y="4550" width="80" height="80" as="geometry" />
        </mxCell>
        <mxCell id="M2EjxPVko-mRUe3qHApl-157" value="no" style="edgeStyle=orthogonalEdgeStyle;rounded=0;orthogonalLoop=1;jettySize=auto;html=1;entryX=0.015;entryY=0.383;entryDx=0;entryDy=0;entryPerimeter=0;" edge="1" parent="WIyWlLk6GJQsqaUBKTNV-1" source="M2EjxPVko-mRUe3qHApl-155" target="M2EjxPVko-mRUe3qHApl-138">
          <mxGeometry relative="1" as="geometry">
            <Array as="points">
              <mxPoint x="196" y="4061" />
            </Array>
          </mxGeometry>
        </mxCell>
        <mxCell id="M2EjxPVko-mRUe3qHApl-165" style="edgeStyle=orthogonalEdgeStyle;rounded=0;orthogonalLoop=1;jettySize=auto;html=1;entryX=0;entryY=0;entryDx=0;entryDy=0;" edge="1" parent="WIyWlLk6GJQsqaUBKTNV-1" source="M2EjxPVko-mRUe3qHApl-155" target="M2EjxPVko-mRUe3qHApl-163">
          <mxGeometry relative="1" as="geometry">
            <Array as="points">
              <mxPoint x="196" y="4860" />
            </Array>
          </mxGeometry>
        </mxCell>
        <mxCell id="M2EjxPVko-mRUe3qHApl-155" value="is the letters the word yrs?" style="rhombus;whiteSpace=wrap;html=1;" vertex="1" parent="WIyWlLk6GJQsqaUBKTNV-1">
          <mxGeometry x="150" y="4455" width="92.5" height="90" as="geometry" />
        </mxCell>
        <mxCell id="M2EjxPVko-mRUe3qHApl-160" value="no" style="edgeStyle=orthogonalEdgeStyle;rounded=0;orthogonalLoop=1;jettySize=auto;html=1;entryX=0.088;entryY=0.233;entryDx=0;entryDy=0;entryPerimeter=0;" edge="1" parent="WIyWlLk6GJQsqaUBKTNV-1" source="M2EjxPVko-mRUe3qHApl-158" target="M2EjxPVko-mRUe3qHApl-138">
          <mxGeometry relative="1" as="geometry">
            <Array as="points">
              <mxPoint x="100" y="4680" />
              <mxPoint x="100" y="4049" />
            </Array>
          </mxGeometry>
        </mxCell>
        <mxCell id="M2EjxPVko-mRUe3qHApl-162" value="" style="edgeStyle=orthogonalEdgeStyle;rounded=0;orthogonalLoop=1;jettySize=auto;html=1;" edge="1" parent="WIyWlLk6GJQsqaUBKTNV-1" source="M2EjxPVko-mRUe3qHApl-158" target="M2EjxPVko-mRUe3qHApl-161">
          <mxGeometry relative="1" as="geometry" />
        </mxCell>
        <mxCell id="M2EjxPVko-mRUe3qHApl-158" value="does it have the word years after the number" style="whiteSpace=wrap;html=1;" vertex="1" parent="WIyWlLk6GJQsqaUBKTNV-1">
          <mxGeometry x="347.5" y="4650" width="112.5" height="60" as="geometry" />
        </mxCell>
        <mxCell id="M2EjxPVko-mRUe3qHApl-164" value="" style="edgeStyle=orthogonalEdgeStyle;rounded=0;orthogonalLoop=1;jettySize=auto;html=1;" edge="1" parent="WIyWlLk6GJQsqaUBKTNV-1" source="M2EjxPVko-mRUe3qHApl-161" target="M2EjxPVko-mRUe3qHApl-163">
          <mxGeometry relative="1" as="geometry" />
        </mxCell>
        <mxCell id="M2EjxPVko-mRUe3qHApl-161" value="yes" style="rhombus;whiteSpace=wrap;html=1;" vertex="1" parent="WIyWlLk6GJQsqaUBKTNV-1">
          <mxGeometry x="363.75" y="4750" width="80" height="80" as="geometry" />
        </mxCell>
        <mxCell id="M2EjxPVko-mRUe3qHApl-166" value="no" style="edgeStyle=orthogonalEdgeStyle;rounded=0;orthogonalLoop=1;jettySize=auto;html=1;" edge="1" parent="WIyWlLk6GJQsqaUBKTNV-1" source="M2EjxPVko-mRUe3qHApl-163" target="M2EjxPVko-mRUe3qHApl-138">
          <mxGeometry relative="1" as="geometry">
            <mxPoint x="50" y="3990" as="targetPoint" />
            <Array as="points">
              <mxPoint x="40" y="4890" />
              <mxPoint x="40" y="4040" />
            </Array>
          </mxGeometry>
        </mxCell>
        <mxCell id="M2EjxPVko-mRUe3qHApl-168" value="" style="edgeStyle=orthogonalEdgeStyle;rounded=0;orthogonalLoop=1;jettySize=auto;html=1;" edge="1" parent="WIyWlLk6GJQsqaUBKTNV-1" source="M2EjxPVko-mRUe3qHApl-163" target="M2EjxPVko-mRUe3qHApl-167">
          <mxGeometry relative="1" as="geometry" />
        </mxCell>
        <mxCell id="M2EjxPVko-mRUe3qHApl-163" value="is the answer 3 years?" style="whiteSpace=wrap;html=1;" vertex="1" parent="WIyWlLk6GJQsqaUBKTNV-1">
          <mxGeometry x="345" y="4860" width="120" height="60" as="geometry" />
        </mxCell>
        <mxCell id="M2EjxPVko-mRUe3qHApl-170" value="" style="edgeStyle=orthogonalEdgeStyle;rounded=0;orthogonalLoop=1;jettySize=auto;html=1;" edge="1" parent="WIyWlLk6GJQsqaUBKTNV-1" source="M2EjxPVko-mRUe3qHApl-167" target="M2EjxPVko-mRUe3qHApl-169">
          <mxGeometry relative="1" as="geometry" />
        </mxCell>
        <mxCell id="M2EjxPVko-mRUe3qHApl-167" value="yes!" style="rhombus;whiteSpace=wrap;html=1;" vertex="1" parent="WIyWlLk6GJQsqaUBKTNV-1">
          <mxGeometry x="365" y="4940" width="80" height="80" as="geometry" />
        </mxCell>
        <mxCell id="M2EjxPVko-mRUe3qHApl-169" value="congrats, your done!" style="ellipse;whiteSpace=wrap;html=1;" vertex="1" parent="WIyWlLk6GJQsqaUBKTNV-1">
          <mxGeometry x="345" y="5040" width="120" height="80" as="geometry" />
        </mxCell>
      </root>
    </mxGraphModel>
  </diagram>
</mxfile>
